# xmcd
#
# Track frame offsets:
#	180
#	18120
#	34267
#	52039
#	68772
#	87835
#	102304
#	122044
#	134506
#	154009
#
# Disc length: 2273 seconds
#
# Revision: 0
# Processed by: cddbd v1.5.2PL0 Copyright (c) Steve Scherf et al.
# Submitted via: audiograbber 1.83.01
#
DISCID=8008df0a
DTITLE=J.M. Warren - Down By The Tracks
DYEAR=1997
DGENRE=Country
TTITLE0=Drifter
TTITLE1=Summertime memory
TTITLE2=Whiskey chasin'
TTITLE3=Shoulda known
TTITLE4=(I'm just a) workin' man
TTITLE5=Headin' South
TTITLE6=Grandpa
TTITLE7=She's my truck
TTITLE8=I'm gonna love you
TTITLE9=Country Man
EXTD=
EXTT0=
EXTT1=
EXTT2=
EXTT3=
EXTT4=
EXTT5=
EXTT6=
EXTT7=
EXTT8=
EXTT9=
PLAYORDER=
